<svg viewBox="0 0 800 800" xmlns="http://www.w3.org/2000/svg"><path d="M579.6392614703822,405.81046101246335 L572.2096538008595,401.5219296224634 M579.6392614703822,405.81046101246335 L575.4438340085368,448.11633766319426 M575.4438340085368,448.11633766319426 L563.1064928025268,492.79849207876583 M563.1064928025268,492.79849207876583 L543.3445389034036,537.2653426673935 M543.3445389034036,537.2653426673935 L517.3045498699588,578.9386306444118 M517.3045498699588,578.9386306444118 L486.4962084506876,615.4018842643775 M486.4962084506876,615.4018842643775 L452.70540957109324,644.5395988345907 M452.70540957109324,644.5395988345907 L417.89155487652545,664.6593442067999 M417.89155487652545,664.6593442067999 L384.07454227465587,674.5899812195704 M384.07454227465587,674.5899812195704 L353.21835878180457,673.7500231681681 M353.21835878180457,673.7500231681681 L327.1170397438159,662.1825510994506 M327.1170397438159,662.1825510994506 L307.29037851598144,640.553925578322 M307.29037851598144,640.553925578322 L294.8949020270195,610.1164477310864 M294.8949020270195,610.1164477310864 L290.65557819526225,572.6367011485357 M290.65557819526225,572.6367011485357 L294.8228281613477,530.2933031900757 M294.8228281613477,530.2933031900757 L307.15682707496956,485.5503499114825 M307.15682707496956,485.5503499114825 L326.941115972229,441.0132911758909 M326.941115972229,441.0132911758909 L353.02396242268856,399.27650975023147 M353.02396242268856,399.27650975023147 L383.88584113625836,362.7710329951089 M383.88584113625836,362.7710329951089 L417.7286306333815,333.6219860585036 M417.7286306333815,333.6219860585036 L452.58100501885383,313.5244404885328 M452.58100501885383,313.5244404885328 L486.41424205744704,303.64444976250746 M486.41424205744704,303.64444976250746 L517.2606516515624,304.55185277209983 M517.2606516515624,304.55185277209983 L543.3283993799015,316.1881700327974 M543.3283993799015,316.1881700327974 L563.105407058967,337.87125935770223 M563.105407058967,337.87125935770223 L575.4465609822624,368.3363025028728 M575.4465609822624,368.3363025028728 L579.6392614703822,405.81046101246335 M572.2096538008595,401.5219296224634 L570.9293597136268,385.6132666512741 M570.9293597136268,385.6132666512741 L569.9022780691345,381.7354295462554 M569.9022780691345,381.7354295462554 L568.2010221023372,377.72272456671936 M568.2010221023372,377.72272456671936 L565.9582938310099,373.7082883865607 M565.9582938310099,373.7082883865607 L562.380522274851,368.53461791080207 M562.380522274851,368.53461791080207 L557.9250031009136,363.14156704021553 M557.9250031009136,363.14156704021553 L545.9267379028246,351.3293512330028 M545.9267379028246,351.3293512330028 L531.9423718006041,340.17480974030883 M531.9423718006041,340.17480974030883 L524.677278765666,335.1911217024883 M524.677278765666,335.1911217024883 L517.8465455417007,331.00077540171895 M397.3692611823909,489.63644352669314 L431.776067015909,503.31025951707386 M431.776067015909,503.31025951707386 L452.39063566463267,506.47095231084023 M452.39063566463267,506.47095231084023 L473.92858896589894,506.111968850709 M473.92858896589894,506.111968850709 L496.42746346656827,501.5154479934418 M496.42746346656827,501.5154479934418 L517.7357416285902,492.4348034962309 M517.7357416285902,492.4348034962309 L536.4782978099114,479.2583996706218 M536.4782978099114,479.2583996706218 L551.5671705707877,462.9598852164718 M551.5671705707877,462.9598852164718 L562.5234905406303,444.68621676868287 M562.5234905406303,444.68621676868287 L569.3304493907009,425.37906778670896 M569.3304493907009,425.37906778670896 L571.4929158076276,413.4665691274669 M571.4929158076276,413.4665691274669 L572.2096538008595,401.5219296224634 M370.799212313014,246.14404211574816 L517.8465455417007,331.00077540171895 M327.4895808862542,260.2641726667974 L327.3991559158993,291.9121449879238 M327.3991559158993,291.9121449879238 L327.52390600205194,323.935473822166 M327.52390600205194,323.935473822166 L328.73351053254373,354.71658675361584 M328.73351053254373,354.71658675361584 L332.2439829072506,385.7584135209411 M332.2439829072506,385.7584135209411 L339.1987173851787,415.00172510171296 M339.1987173851787,415.00172510171296 L350.11030995181534,440.7956052267948 M350.11030995181534,440.7956052267948 L364.7688769417194,462.36904827930874 M364.7688769417194,462.36904827930874 L379.98337641215596,477.5060085129071 M379.98337641215596,477.5060085129071 L397.3692611823909,489.63644352669314 M327.43488853247993,245.07447567011096 L327.7747976657986,241.9888084408276 M327.7747976657986,241.9888084408276 L328.6927308539689,239.49072705803638 M328.6927308539689,239.49072705803638 L330.1000070998309,237.5855142227637 M330.1000070998309,237.5855142227637 L332.5557024885669,235.8969534793468 M332.5557024885669,235.8969534793468 L335.8236744095143,234.9639266516213 M335.8236744095143,234.9639266516213 L345.33242032984253,235.56786350910826 M345.33242032984253,235.56786350910826 L357.41933849550355,239.46137848423948 M357.41933849550355,239.46137848423948 L364.14717690399345,242.55359436476363 M364.14717690399345,242.55359436476363 L370.799212313014,246.14404211574816 M327.4895808862542,260.2641726667974 L320.0744079347329,255.983973310467 M327.43488853247993,245.07447567011096 L327.4895808862542,260.2641726667974 M320.0744079347329,255.983973310467 L315.8471774980071,218.52496017104968 M315.8471774980071,218.52496017104968 L303.4735003779913,188.0645106500682 M303.4735003779913,188.0645106500682 L283.66787073696844,166.37518873524948 M283.66787073696844,166.37518873524948 L257.57707186451523,154.72216421957012 M257.57707186451523,154.72216421957012 L226.71452812624543,153.78853892648718 M226.71452812624543,153.78853892648718 L192.8730169970151,163.6343068927228 M192.8730169970151,163.6343068927228 L158.02071252366753,183.69161283374882 M158.02071252366753,183.69161283374882 L124.18633286579558,212.79674175767585 M124.18633286579558,212.79674175767585 L93.3407120554595,249.25717984948005 M93.3407120554595,249.25717984948005 L67.28102130556312,290.95042877593954 M67.28102130556312,290.95042877593954 L47.525433634820615,335.44800248605026 M47.525433634820615,335.44800248605026 L35.224007284269874,380.15782367230594 M35.224007284269874,380.15782367230594 L31.09130388326446,422.4763754811234 M31.09130388326446,422.4763754811234 L35.36513900353174,459.94100861824177 M35.36513900353174,459.94100861824177 L47.79308745231981,490.3739812434767 M47.79308745231981,490.3739812434767 L67.64829855220046,512.0089640785307 M67.64829855220046,512.0089640785307 L93.77259232201084,523.593275822115 M93.77259232201084,523.593275822115 L124.64484672598729,524.4595659108643 M124.64484672598729,524.4595659108643 L158.47009782432926,514.5632136617946 M158.47009782432926,514.5632136617946 L193.28388283807152,494.4837079334362 M193.28388283807152,494.4837079334362 L227.06630788222031,465.389849398336 M227.06630788222031,465.389849398336 L257.85845489415846,428.97152470461924 M257.85845489415846,428.97152470461924 L283.8753646951937,387.34163681033425 M283.8753646951937,387.34163681033425 L303.6086892937078,342.91414651254166 M303.6086892937078,342.91414651254166 L315.9135088272002,298.2650357649439 M315.9135088272002,298.2650357649439 L320.0744079347329,255.983973310467 M579.6392614703822,405.81046101246335 L582.4894564792493,407.87344110906827 M582.4894564792493,407.87344110906827 L584.4730590543262,410.2508573809892 M584.4730590543262,410.2508573809892 L585.4905793779284,412.8235060862136 M585.4905793779284,412.8235060862136 L585.4909368271772,415.4624263309429 M585.4909368271772,415.4624263309429 L584.4740605998602,418.03525409921986 M584.4740605998602,418.03525409921986 L582.4909037557022,420.41299303269926 M582.4909037557022,420.41299303269926 L579.6408678260088,422.47637548112345 M579.6408678260088,422.47637548112345 L575.8645227225169,460.5545921525262 M575.8645227225169,460.5545921525262 L564.7594288245914,500.7729193788888 M564.7594288245914,500.7729193788888 L546.9712400534644,540.7982041948494 M546.9712400534644,540.7982041948494 L523.532165617334,578.309193364098 M523.532165617334,578.309193364098 L495.80144385560334,611.1302678505161 M495.80144385560334,611.1302678505161 L465.38696527009836,637.3569191157022 M465.38696527009836,637.3569191157022 L434.0527683664128,655.4657060796007 M434.0527683664128,655.4657060796007 L403.6171363062253,664.4027264040915 M403.6171363062253,664.4027264040915 L375.84780699087344,663.6450579785572 M375.84780699087344,663.6450579785572 L352.3592907141052,653.2320731140014 M352.3592907141052,653.2320731140014 L334.51896781966514,633.7641756180138 M334.51896781966514,633.7641756180138 L323.367112579301,606.3689812290077 M323.367112579301,606.3689812290077 L319.555554488962,572.6367011485357 M319.555554488962,572.6367011485357 L323.309079266676,534.5280957141613 M323.309079266676,534.5280957141613 L334.41146298299316,494.26052045201715 M334.41146298299316,494.26052045201715 L352.21774894982946,454.17835840548383 M352.21774894982946,454.17835840548383 L375.691530174517,416.6159487335303 M375.691530174517,416.6159487335303 L403.4656311650582,383.76065524387184 M403.4656311650582,383.76065524387184 L433.9222237760587,357.5248320657578 M433.9222237760587,357.5248320657578 L465.2876216248425,339.43402692959717 M465.2876216248425,339.43402692959717 L495.7363938686508,330.5380227881217 M495.7363938686508,330.5380227881217 L523.4977923096176,331.3503398926938 M523.4977923096176,331.3503398926938 L546.959123537613,341.8190801746224 M546.959123537613,341.8190801746224 L564.7592211986608,361.3311019864215 M564.7592211986608,361.3311019864215 L575.8670780887263,388.7486252323049 M575.8670780887263,388.7486252323049 L579.6408678260088,422.47637548112345 M572.2096538008595,401.5219296224634 L569.1167277077859,399.22865308011376 M569.1167277077859,399.22865308011376 L567.0892931092516,396.56890455364004 M567.0892931092516,396.56890455364004 L566.2506495998399,393.70414446806393 M566.2506495998399,393.70414446806393 L566.6516878906892,390.8083001435722 M566.6516878906892,390.8083001435722 L568.2679709640983,388.05731823608903 M568.2679709640983,388.05731823608903 L571.0011656104639,385.6184374735143 M571.0011656104639,385.6184374735143 L574.6851012823082,383.6400352972964 M574.6851012823082,383.6400352972964 L579.0958326981475,382.2426582324391 M579.0958326981475,382.2426582324391 L581.8458398499981,381.73880545141185 M581.8458398499981,381.73880545141185 L584.6916486114208,381.4642994947828 M584.6916486114208,381.4642994947828 L583.5854511401589,364.85603178022274 M570.9293597136268,385.6132666512741 L567.8834175396249,383.6658998265617 M567.8834175396249,383.6658998265617 L565.9011582956643,381.25945564863844 M565.9011582956643,381.25945564863844 L565.1032385752773,378.54049241339226 M565.1032385752773,378.54049241339226 L565.5381319908566,375.67450193475094 M565.5381319908566,375.67450193475094 L567.1793142866637,372.8359425421521 M567.1793142866637,372.8359425421521 L569.9268324917459,370.19755118621185 M569.9268324917459,370.19755118621185 L573.6134525085428,367.91986002983384 M573.6134525085428,367.91986002983384 L578.0148031008084,366.14145597464176 M578.0148031008084,366.14145597464176 L580.754089872183,365.3913394931625 M580.754089872183,365.3913394931625 L583.5854511401589,364.85603178022274 M583.5854511401589,364.85603178022274 L582.5506546482857,362.24166187594847 M582.5506546482857,362.24166187594847 L580.9062986871631,359.5779521569783 M580.9062986871631,359.5779521569783 L578.7480019446851,356.96847554863865 M578.7480019446851,356.96847554863865 L576.1873241131447,354.50036595699464 M576.1873241131447,354.50036595699464 L572.3564818252376,351.5342746747637 M572.3564818252376,351.5342746747637 L561.8530768355531,345.76930881490176 M561.8530768355531,345.76930881490176 L547.4140968447625,340.3139760251852 M547.4140968447625,340.3139760251852 L531.7358232971137,335.11341525224725 M517.8465455417007,331.00077540171895 L519.0119746887436,333.657278108719 M519.0119746887436,333.657278108719 L520.7673208385229,335.6081252466883 M520.7673208385229,335.6081252466883 L523.0311576902158,336.76291225632764 M523.0311576902158,336.76291225632764 L525.6984849466003,337.06812907973637 M525.6984849466003,337.06812907973637 L528.6455867991118,336.50964535257896 M528.6455867991118,336.50964535257896 L531.7358232971137,335.11341525224725 M397.3692611823909,489.63644352669314 L400.37217620921405,485.7011631048413 M400.37217620921405,485.7011631048413 L403.7509173839696,482.46348987972704 M403.7509173839696,482.46348987972704 L407.3001903738413,480.12047287342995 M407.3001903738413,480.12047287342995 L410.8043002594112,478.81462599732083 M410.8043002594112,478.81462599732083 L414.0503210046809,478.6253127575147 M414.0503210046809,478.6253127575147 L416.8408903695354,479.5640112664127 M416.8408903695354,479.5640112664127 L419.006366257155,481.5735593239661 M419.006366257155,481.5735593239661 L420.41503672385176,484.53168495888724 M420.41503672385176,484.53168495888724 L420.8456408297003,486.58470092964563 M420.8456408297003,486.58470092964563 L420.99052158469067,488.84935180606595 M420.99052158469067,488.84935180606595 L448.46968323192937,499.70531477799386 M448.46968323192937,499.70531477799386 L468.109912740514,502.3496018214791 M468.109912740514,502.3496018214791 L488.7248417787457,501.10132647234155 M488.7248417787457,501.10132647234155 L506.85885346125235,496.525261591077 M506.85885346125235,496.525261591077 L524.3333034719756,488.62951814972706 M524.3333034719756,488.62951814972706 L540.3533828954285,477.64590308701463 M540.3533828954285,477.64590308701463 L554.2381049950911,464.10881858466104 M554.2381049950911,464.10881858466104 L568.7258894841959,443.345747146269 M568.7258894841959,443.345747146269 L579.3384400535117,418.0359832306068 M579.3384400535117,418.0359832306068 L583.3658836329264,399.7555527942998 M583.3658836329264,399.7555527942998 L584.6916486114208,381.4642994947828 M370.799212313014,246.14404211574816 L371.9662730050046,248.800361580235 M371.9662730050046,248.800361580235 L373.72307128216016,250.75151501459484 M373.72307128216016,250.75151501459484 L375.9881135446292,251.9070836067169 M375.9881135446292,251.9070836067169 L378.6563436237499,252.21352100973155 M378.6563436237499,252.21352100973155 L381.60400385457,251.6566402150079 M381.60400385457,251.6566402150079 L384.69442842476974,250.26232104401643 M384.69442842476974,250.26232104401643 L531.7358232971137,335.11341525224725 M327.4895808862542,260.2641726667974 L331.45337226127543,262.04641535091145 M331.45337226127543,262.04641535091145 L336.0538041042688,263.21468213523605 M336.0538041042688,263.21468213523605 L341.0110291396061,263.69792248086037 M341.0110291396061,263.69792248086037 L346.0236333185885,263.46681041817806 M346.0236333185885,263.46681041817806 L350.786812840858,262.535410016525 M350.786812840858,262.535410016525 L355.0109409855405,260.9604081967162 M355.0109409855405,260.9604081967162 L358.4392062939321,258.8375621295805 M358.4392062939321,258.8375621295805 L360.86317612235143,256.29595829774996 M360.86317612235143,256.29595829774996 L361.7391223687375,254.71132989892823 M361.7391223687375,254.71132989892823 L362.21884248034763,253.07152745738716 M362.21884248034763,253.07152745738716 L361.79356968707674,292.6735181379828 M361.79356968707674,292.6735181379828 L361.31868140451087,332.73242348327847 M361.31868140451087,332.73242348327847 L362.194911808868,366.04660105782875 M362.194911808868,366.04660105782875 L365.1323847612249,394.8514261521479 M365.1323847612249,394.8514261521479 L371.0569852268767,421.6710086378448 M371.0569852268767,421.6710086378448 L380.3909386066278,445.21332930753573 M380.3909386066278,445.21332930753573 L393.02707492912486,464.823706921423 M393.02707492912486,464.823706921423 L406.04186220762074,478.25845845475015 M406.04186220762074,478.25845845475015 L420.99052158469067,488.84935180606595 M327.43488853247993,245.07447567011096 L331.41573144812367,247.18334459517217 M331.41573144812367,247.18334459517217 L336.02858617523145,248.58498023987516 M336.02858617523145,248.58498023987516 L340.9925673104371,249.19399389280392 M340.9925673104371,249.19399389280392 L346.00549096074633,248.97330737737238 M346.00549096074633,248.97330737737238 L350.7621754323045,247.9363589257958 M350.7621754323045,247.9363589257958 L354.97306927880834,246.14630028798348 M354.97306927880834,246.14630028798348 L358.3818610155889,243.7121101593911 M358.3818610155889,243.7121101593911 L360.7810623920359,240.78199083816423 M360.7810623920359,240.78199083816423 L361.64094710524455,238.9492679002196 M361.64094710524455,238.9492679002196 L362.10361527132784,237.04884624051965 M362.10361527132784,237.04884624051965 L362.2478832983954,235.11666974315506 M362.2478832983954,235.11666974315506 L362.77307277101494,233.7064355197733 M362.77307277101494,233.7064355197733 L363.6115542604017,232.8274723221028 M363.6115542604017,232.8274723221028 L364.68222713654984,232.45565998985361 M364.68222713654984,232.45565998985361 L366.3249127431402,232.6486392754386 M366.3249127431402,232.6486392754386 L370.7504754325833,235.497748668173 M370.7504754325833,235.497748668173 L376.8250135105322,241.87684255259254 M376.8250135105322,241.87684255259254 L384.69442842476974,250.26232104401643 M362.10361527132784,237.04884624051965 L362.21884248034763,253.07152745738716 M320.0744079347329,255.983973310467 L316.5069792505211,254.3421328884025 M316.5069792505211,254.3421328884025 L312.3947611884745,253.19960641217978 M312.3947611884745,253.19960641217978 L307.9439489598874,252.61365580936325 M307.9439489598874,252.61365580936325 L303.3776268110553,252.61365580936325 M303.3776268110553,252.61365580936325 L298.9247814014036,253.19960641217978 M298.9247814014036,253.19960641217978 L294.8085989041533,254.3421328884025 M294.8085989041533,254.3421328884025 L291.2354732228886,255.983973310467 M291.2354732228886,255.983973310467 L287.42715446056485,222.27136684376487 M287.42715446056485,222.27136684376487 L276.28677692340386,194.85843279788617 M276.28677692340386,194.85843279788617 L258.4580608939265,175.340172171015 M258.4580608939265,175.340172171015 L234.9736823425361,164.8547179988247 M234.9736823425361,164.8547179988247 L207.1961529105553,164.0161731145302 M207.1961529105553,164.0161731145302 L176.73910836523288,172.8779513670705 M176.73910836523288,172.8779513670705 L145.3737804128122,190.92851686893613 M145.3737804128122,190.92851686893613 L114.92559582201932,217.12042512924953 M114.92559582201932,217.12042512924953 L87.16774955645081,249.93068543124255 M87.16774955645081,249.93068543124255 L63.71712019462507,287.4495692498997 M63.71712019462507,287.4495692498997 L45.93953185496309,327.49225252611996 M45.93953185496309,327.49225252611996 L34.869718159035756,367.7267001239358 M34.869718159035756,367.7267001239358 L31.15073904145754,405.81046101246335 M31.15073904145754,405.81046101246335 L34.99680936897414,439.52762604285004 M34.99680936897414,439.52762604285004 L46.18113914324903,466.91831078711857 M46.18113914324903,466.91831078711857 L64.05001552375256,486.39255935398216 M64.05001552375256,486.39255935398216 L87.56151036124334,496.8223772675296 M87.56151036124334,496.8223772675296 L115.3469137512314,497.60637226942185 M115.3469137512314,497.60637226942185 L145.79078608788046,488.7036336317371 M145.79078608788046,488.7036336317371 L177.12491330335564,470.635086315521 M177.12491330335564,470.635086315521 L207.5310162623481,444.4522941939358 M207.5310162623481,444.4522941939358 L235.24554045203485,411.6761541136491 M235.24554045203485,411.6761541136491 L258.6615318382296,374.2085716420671 M258.6615318382296,374.2085716420671 L276.42108771695075,334.22265333107475 M276.42108771695075,334.22265333107475 L287.49365739600296,294.0373741938338 M287.49365739600296,294.0373741938338 L291.2354732228886,255.983973310467 M334.01841997848487,564.2865618649064 L337.35601357004793,530.4137542615421 M337.35601357004793,530.4137542615421 L347.2249357991096,494.6227737212822 M347.2249357991096,494.6227737212822 L363.05184567368667,458.99701641816216 M363.05184567368667,458.99701641816216 L383.91573105274665,425.6107156149287 M383.91573105274665,425.6107156149287 L408.6016602233559,396.40773534207904 M408.6016602233559,396.40773534207904 L435.67211071904603,373.08743451009997 M435.67211071904603,373.08743451009997 L463.55091597865294,357.0058318833859 M463.55091597865294,357.0058318833859 L490.61583458816017,349.09626635514087 M490.61583458816017,349.09626635514087 L515.2930238196336,349.8156012080837 M515.2930238196336,349.8156012080837 L536.1488877274136,359.1184158287213 M536.1488877274136,359.1184158287213 L551.9732014821764,376.4602307139099 M551.9732014821764,376.4602307139099 L561.8490025405576,400.83028713924483 M561.8490025405576,400.83028713924483 L565.2053529854104,430.8107238602339 M565.2053529854104,430.8107238602339 L561.8497176452343,464.6595268774682 M561.8497176452343,464.6595268774682 L551.97867578761,500.41157486626645 M551.97867578761,500.41157486626645 L536.1660402884138,535.9924206210978 M536.1660402884138,535.9924206210978 L515.3295913383909,569.3380595828085 M515.3295913383909,569.3380595828085 L490.67792332889996,598.5140368545188 M490.67792332889996,598.5140368545188 L463.64076187841636,621.8270644643819 M463.64076187841636,621.8270644643819 L435.7866092115552,637.9228749487082 M435.7866092115552,637.9228749487082 L408.73205919646466,645.8648745964341 M408.73205919646466,645.8648745964341 L384.0486173738085,645.1886847090803 M384.0486173738085,645.1886847090803 L363.17126014296036,635.9299570550476 M363.17126014296036,635.9299570550476 L347.31518814783976,618.6229773550195 M347.31518814783976,618.6229773550195 L337.4046011945611,594.2705839960806 M337.4046011945611,594.2705839960806 L334.01841997848487,564.2865618649064 M420.99464799880946,497.4187953354657 L420.99052158469067,488.84935180606595 M420.99464799880946,497.4187953354657 L459.68469286247637,514.9346846204819 M459.68469286247637,514.9346846204819 L504.51936136513905,526.5933877952422 M504.51936136513905,526.5933877952422 L552.8886582164448,531.7145179923015 M552.8886582164448,531.7145179923015 L601.9754092335361,529.999096353843 M601.9754092335361,529.999096353843 L648.9203628097242,521.5472857065615 M648.9203628097242,521.5472857065615 L690.9898376652334,506.85241770155346 M690.9898376652334,506.85241770155346 L725.7358727160971,486.77186381519437 M725.7358727160971,486.77186381519437 L751.1391579794365,462.476421961989 M751.1391579794365,462.476421961989 L765.7263953786138,435.3813999025616 M765.7263953786138,435.3813999025616 L768.6552462710446,407.06361424279993 M768.6552462710446,407.06361424279993 L759.7619830617203,379.16923815627894 M759.7619830617203,379.16923815627894 L739.5695942493288,353.31803981641644 M739.5695942493288,353.31803981641644 L709.2559039323797,331.0095746208584 M709.2559039323797,331.0095746208584 L670.5842037238888,313.5366511985016 M670.5842037238888,313.5366511985016 L625.8003667266587,301.91107092067443 M625.8003667266587,301.91107092067443 L577.5027433127194,296.8056326223509 M577.5027433127194,296.8056326223509 L528.4920881529382,298.51572029372045 M528.4920881529382,298.51572029372045 L481.61022020793087,306.9423930920548 M481.61022020793087,306.9423930920548 L439.5763685710889,321.5980781229066 M439.5763685710889,321.5980781229066 L404.83033349725116,341.63438027634504 M404.83033349725116,341.63438027634504 L379.39142498914316,365.89063918000204 M379.39142498914316,365.89063918000204 L364.74110197507844,392.96052340169047 M364.74110197507844,392.96052340169047 L361.7361552699505,421.27297510873734 M361.7361552699505,421.27297510873734 L370.55774507630065,449.18304306494883 M370.55774507630065,449.18304306494883 L390.69930237772115,475.0673642929628 M390.69930237772115,475.0673642929628 L420.99464799880946,497.4187953354657 M362.10361527132784,237.04884624051965 L372.22837090731684,209.68395268122708 M372.22837090731684,209.68395268122708 L393.27259800626837,184.47698672432026 M393.27259800626837,184.47698672432026 L424.0406659170486,162.85250509698145 M424.0406659170486,162.85250509698145 L462.78907278313807,146.03146654446425 M462.78907278313807,146.03146654446425 L507.3253631285327,134.9628915713182 M507.3253631285327,134.9628915713182 L555.1319320281415,130.2709074512892 M555.1319320281415,130.2709074512892 L603.5075954255548,132.22000941288525 M603.5075954255548,132.22000941288525 L649.7192742002644,140.70032849749663 M649.7192742002644,140.70032849749663 L691.1552868702053,155.23375170369724 M691.1552868702053,155.23375170369724 L725.4721534222587,175.00053706432408 M725.4721534222587,175.00053706432408 L750.7266486986085,198.8849879447862 M750.7266486986085,198.8849879447862 L765.4857883733602,225.53785431444228 M765.4857883733602,225.53785431444228 L768.9086961167355,253.45197491418944 M768.9086961167355,253.45197491418944 L760.7952667888073,281.04718980267387 M760.7952667888073,281.04718980267387 L741.5989814730387,306.7596736088901 M741.5989814730387,306.7596736088901 L712.4025243562786,329.1307649169871 M712.4025243562786,329.1307649169871 L674.8574408562101,346.8901734815485 M674.8574408562101,346.8901734815485 L631.0910129638487,359.0286609142695 M631.0910129638487,359.0286609142695 L583.5854511401589,364.85603178022274 M384.69442842476974,250.26232104401643 L381.96775558359917,224.77521804978795 M381.96775558359917,224.77521804978795 L389.90548094116036,199.65755119454724 M389.90548094116036,199.65755119454724 L408.0405777228995,176.37026735034254 M408.0405777228995,176.37026735034254 L435.3139170465944,156.2665449238915 M435.3139170465944,156.2665449238915 L470.1367380963834,140.51359352203644 M470.1367380963834,140.51359352203644 L510.4833562893616,130.02535374243638 M510.4833562893616,130.02535374243638 L554.0088488854054,125.41001878042954 M554.0088488854054,125.41001878042954 L598.184704285592,126.93514645516228 M598.184704285592,126.93514645516228 L640.4448591247383,134.5123283443438 M640.4448591247383,134.5123283443438 L678.3338773876815,147.702248915996 M678.3338773876815,147.702248915996 L709.6488054651849,165.73989087937622 M709.6488054651849,165.73989087937622 L732.5669066098224,187.5784089638525 M732.5669066098224,187.5784089638525 L745.7517408502431,211.9493526670229 M745.7517408502431,211.9493526670229 L748.4314610894538,237.43591893031044 M748.4314610894538,237.43591893031044 L740.4447994713254,262.5549816732853 M740.4447994713254,262.5549816732853 L722.251661677765,285.8433489210163 M722.251661677765,285.8433489210163 L694.9074891455639,305.94317927518824 M694.9074891455639,305.94317927518824 L660.0026142553771,321.68152583022976 M660.0026142553771,321.68152583022976 L619.5700487720081,332.13933453122456 M619.5700487720081,332.13933453122456 L575.966778964085,336.7055898968867 M575.966778964085,336.7055898968867 L531.7358232971137,335.11341525224725 M478.6452471461056,280.88422263801857 L460.45472011490756,267.48672860875627 M460.45472011490756,267.48672860875627 L448.3562837911562,251.96962207834247 M448.3562837911562,251.96962207834247 L443.05149383528556,235.23572022260885 M443.05149383528556,235.23572022260885 L444.84643364059536,218.2580102393636 M444.84643364059536,218.2580102393636 L453.63444761175276,202.02302121187327 M453.63444761175276,202.02302121187327 L468.9028607874767,187.47349065064216 M468.9028607874767,187.47349065064216 L489.7632345369051,175.45377731072642 M489.7632345369051,175.45377731072642 L515.0032376528986,166.6610643679405 M515.0032376528986,166.6610643679405 L543.1571129294532,161.60514683610072 M543.1571129294532,161.60514683610072 L572.5906135257172,160.57908673763026 M572.5906135257172,160.57908673763026 L601.5954937534287,163.64234866034298 M601.5954937534287,163.64234866034298 L628.4883162327416,170.61739048266574 M628.4883162327416,170.61739048266574 L651.7077328454961,181.09986237141587 M651.7077328454961,181.09986237141587 L669.9048720465141,194.48188871788676 M669.9048720465141,194.48188871788676 L682.0216300918844,209.98707102871097 M682.0216300918844,209.98707102871097 L687.3522540372201,226.7153238195903 M687.3522540372201,226.7153238195903 L685.5847422468825,243.6949540243617 M685.5847422468825,243.6949540243617 L676.8194668712018,259.9389926591955 M676.8194668712018,259.9389926591955 L661.5638937452783,274.50262905895835 M661.5638937452783,274.50262905895835 L640.7035199988346,286.5382729947944 M640.7035199988346,286.5382729947944 L615.4506768364317,295.3450917817923 M615.4506768364317,295.3450917817923 L587.2740629622837,300.41005892801905 M587.2740629622837,300.41005892801905 L557.8131343452513,301.4380392469479 M557.8131343452513,301.4380392469479 L528.7824201236066,298.36912825523086 M528.7824201236066,298.36912825523086 L501.8712759233945,291.38216220672166 M501.8712759233945,291.38216220672166 L478.6452471461056,280.88422263801857 M334.01841997848487,564.2865618649064 L336.87454165422787,562.219270107543 M336.87454165422787,562.219270107543 L338.86347940424474,559.8370263484751 M338.86347940424474,559.8370263484751 L339.88554182747475,557.259324223148 M339.88554182747475,557.259324223148 L339.88951591339486,554.6154044928244 M339.88951591339486,554.6154044928244 L338.8752553015146,552.0378819396484 M338.8752553015146,552.0378819396484 L336.89367732883034,549.655961759506 M336.89367732883034,549.655961759506 L334.0441703608648,547.5890734978984 M334.0441703608648,547.5890734978984 L336.9642038993861,517.9526387515459 M336.9642038993861,517.9526387515459 L345.5983625442823,486.63896439593503 M345.5983625442823,486.63896439593503 L359.44503011877646,455.4703969873518 M359.44503011877646,455.4703969873518 L377.69849295512654,426.26134251416 M377.69849295512654,426.26134251416 L399.2961825500804,400.71192592992196 M399.2961825500804,400.71192592992196 L422.9806581276664,380.30882403276024 M422.9806581276664,380.30882403276024 L447.3733103668336,366.23818234390126 M447.3733103668336,366.23818234390126 L471.054847457563,359.3168407952367 M471.054847457563,359.3168407952367 L492.6483590702388,359.94495508767625 M492.6483590702388,359.94495508767625 L510.8993189213794,368.08313731981127 M510.8993189213794,368.08313731981127 L524.7484409403166,383.25558166773715 M524.7484409403166,383.25558166773715 L533.392938633039,404.57822162178235 M533.392938633039,404.57822162178235 L536.3327166804136,430.8107238602339 M536.3327166804136,430.8107238602339 L533.3988694188091,460.42878095958713 M533.3988694188091,460.42878095958713 L524.7630865611491,491.7126560874745 M524.7630865611491,491.7126560874745 L510.92737017670163,522.8468134006268 M510.92737017670163,522.8468134006268 L492.69487314827734,552.0247819063047 M492.69487314827734,552.0247819063047 L471.1234235614089,577.5534879620163 M471.1234235614089,577.5534879620163 L447.4644371599642,597.9510641940298 M447.4644371599642,597.9510641940298 L423.09065959418956,612.0325837936247 M423.09065959418956,612.0325837936247 L399.41705867412395,618.978714803661 M399.41705867412395,618.978714803661 L377.8187511039222,618.3836697301144 M377.8187511039222,618.3836697301144 L359.5513756235261,610.279195824682 M359.5513756235261,610.279195824682 L345.67791633353704,595.1334468590987 M345.67791633353704,595.1334468590987 L337.0067870867771,573.8243216921331 M337.0067870867771,573.8243216921331 L334.0441703608648,547.5890734978984 M420.99464799880946,497.4187953354657 L421.3581943403326,500.91450273959964 M421.3581943403326,500.91450273959964 L422.4270172344152,503.8171354012542 M422.4270172344152,503.8171354012542 L424.14746756553836,505.9811706794388 M424.14746756553836,505.9811706794388 L426.433269963939,507.2981113051383 M426.433269963939,507.2981113051383 L429.16974587328684,507.7019844869665 M429.16974587328684,507.7019844869665 L432.21968480869725,507.1725749823783 M432.21968480869725,507.1725749823783 L435.43014678211057,505.73647409584817 M435.43014678211057,505.73647409584817 L470.24842526191196,521.4997160808563 M470.24842526191196,521.4997160808563 L510.5950916770223,531.9916376161792 M510.5950916770223,531.9916376161792 L554.1218152854492,536.6001984622393 M554.1218152854492,536.6001984622393 L598.2940052875485,535.0564758793921 M598.2940052875485,535.0564758793921 L640.5392673890012,527.4505528832344 M640.5392673890012,527.4505528832344 L678.3980869925814,514.2262057412615 M678.3980869925814,514.2262057412615 L709.6677830208865,496.15469857689214 M709.6677830208865,496.15469857689214 L732.5310740865536,474.28935193863055 M732.5310740865536,474.28935193863055 L745.661709713538,449.9036126281467 M745.661709713538,449.9036126281467 L748.300952081461,424.4164299637546 M748.300952081461,424.4164299637546 L740.3006924063741,399.30938668537283 M740.3006924063741,399.30938668537283 L722.1308374201905,376.04052695402135 M722.1308374201905,376.04052695402135 L694.8508488376827,355.95986193070235 M694.8508488376827,355.95986193070235 L660.0474278728406,340.231422298381 M660.0474278728406,340.231422298381 L619.7419303983556,329.76633030564597 M619.7419303983556,329.76633030564597 L576.273255828867,325.1704798829507 M576.273255828867,325.1704798829507 L532.1626966151254,326.70988195896336 M532.1626966151254,326.70988195896336 L489.96852818209607,334.29544328855064 M489.96852818209607,334.29544328855064 L452.1385601813156,347.48805223098987 M452.1385601813156,347.48805223098987 L420.8688641379406,365.5237154967157 M420.8688641379406,365.5237154967157 L397.9767214523524,387.35732394875197 M397.9767214523524,387.35732394875197 L384.79499216763236,411.72270161415497 M384.79499216763236,411.72270161415497 L382.0941190406156,437.20556377648853 M382.0941190406156,437.20556377648853 L390.03632969932426,462.3253174717725 M390.03632969932426,462.3253174717725 L408.16501574124936,485.6210067410584 M408.16501574124936,485.6210067410584 L435.43014678211057,505.73647409584817 M478.6452471461056,280.88422263801857 L481.85663250968014,279.45053862649786 M481.85663250968014,279.45053862649786 L484.90712955623576,278.9245137757679 M484.90712955623576,278.9245137757679 L487.6437687930335,279.3324657024416 M487.6437687930335,279.3324657024416 L489.9293290163189,280.653929353224 M489.9293290163189,280.653929353224 L491.6492440627395,282.8225491185826 M491.6492440627395,282.8225491185826 L492.7172884215986,285.7295798815098 M492.7172884215986,285.7295798815098 L493.0799534078981,289.2292197311812 M493.0799534078981,289.2292197311812 L477.921561112297,278.06509632967635 M477.921561112297,278.06509632967635 L467.8388234028803,265.1342794083033 M467.8388234028803,265.1342794083033 L463.4166135701811,251.18897419275217 M463.4166135701811,251.18897419275217 L464.9104115034743,237.0399632552338 M464.9104115034743,237.0399632552338 L472.2317650736925,223.50941901668776 M472.2317650736925,223.50941901668776 L484.95384398706335,211.38315335961013 M484.95384398706335,211.38315335961013 L502.33652300305334,201.36506095000965 M502.33652300305334,201.36506095000965 L523.3695830028713,194.0364127704228 M523.3695830028713,194.0364127704228 L546.8314255072155,189.82228845411728 M546.8314255072155,189.82228845411728 L571.3598763958867,188.96705578230396 M571.3598763958867,188.96705578230396 L595.5310615344013,191.52030975987714 M595.5310615344013,191.52030975987714 L617.9417764485534,197.3339930593221 M617.9417764485534,197.3339930593221 L637.2906695354818,206.07094852029772 M637.2906695354818,206.07094852029772 L652.4536531004504,217.2243304758373 M652.4536531004504,217.2243304758373 L662.5491128165713,230.1468666857533 M662.5491128165713,230.1468666857533 L666.9892609260795,244.08824893841526 M666.9892609260795,244.08824893841526 L665.5145081022686,258.2385933626059 M665.5145081022686,258.2385933626059 L658.208943473018,271.7754220530079 M658.208943473018,271.7754220530079 L645.4957802704758,283.9114834340826 M645.4957802704758,283.9114834340826 L628.113101255925,293.9406387594806 M628.113101255925,293.9406387594806 L607.0711255469132,301.27908266512475 M607.0711255469132,301.27908266512475 L583.5934941005808,305.49949143143976 M583.5934941005808,305.49949143143976 L559.0459980996328,306.3560575923292 M559.0459980996328,306.3560575923292 L534.8568746821551,303.79888064790225 M534.8568746821551,303.79888064790225 L512.4334377616457,297.9769166397401 M512.4334377616457,297.9769166397401 L493.0799534078981,289.2292197311812 M45.61355710167442,397.4788946133232 L49.192760432436785,395.8339469994125 M49.192760432436785,395.8339469994125 L53.314713578574015,394.6892583058271 M53.314713578574015,394.6892583058271 L57.77273335935223,394.1021988050866 M57.77273335935223,394.1021988050866 L62.34337428675548,394.1021988050866 M62.34337428675548,394.1021988050866 L66.79743317817554,394.6892583058271 M66.79743317817554,394.6892583058271 L70.91166311182911,395.8339469994125 M70.91166311182911,395.8339469994125 L74.47976798410423,397.4788946133232 M45.61355710167442,397.4788946133232 L49.03041669150514,427.44947972043536 M49.03041669150514,427.44947972043536 L58.969872185511065,451.7978605698045 M58.969872185511065,451.7978605698045 L74.85132826256353,469.1104801125076 M74.85132826256353,469.1104801125076 L95.74911427447097,478.38416461806986 M95.74911427447097,478.38416461806986 L120.44684697268605,479.0837510137208 M120.44684697268605,479.0837510137208 L147.5087232563275,471.17222123735723 M147.5087232563275,471.17222123735723 L175.36281396791395,455.1121793257328 M175.36281396791395,455.1121793257328 L202.3925288216745,431.8381403649153 M202.3925288216745,431.8381403649153 L227.02979617226137,402.7021096572534 M227.02979617226137,402.7021096572534 L247.84572346576567,369.39506030485967 M247.84572346576567,369.39506030485967 L263.6329043143217,333.8492125556265 M263.6329043143217,333.8492125556265 L273.4750334881911,298.1265445467002 M273.4750334881911,298.1265445467002 L276.79997533071736,264.2998014355612 M276.79997533071736,264.2998014355612 L273.41293324765684,234.33282442650867 M273.41293324765684,234.33282442650867 L263.508227205763,209.96684340157452 M263.508227205763,209.96684340157452 L247.6584781177258,192.6194773300789 M247.6584781177258,192.6194773300789 L226.7821310734789,183.30180003984356 M226.7821310734789,183.30180003984356 L202.09060602078796,182.55914670779345 M202.09060602078796,182.55914670779345 L175.01833582134367,190.4382864797643 M175.01833582134367,190.4382864797643 L147.13959268147767,206.48412054434098 M147.13959268147767,206.48412054434098 L120.07661439516585,229.7653886308726 M120.07661439516585,229.7653886308726 L95.40513101601306,258.9283443224195 M95.40513101601306,258.9283443224195 L74.56182168857384,292.2759613368715 M74.56182168857384,292.2759613368715 L58.76041759935492,327.8666319705038 M58.76041759935492,327.8666319705038 L48.92044425058697,363.62816962430844 M48.92044425058697,363.62816962430844 L45.61355710167442,397.4788946133232 M74.47976798410423,397.4788946133232 L77.46654459012547,423.7035600207808 M77.46654459012547,423.7035600207808 L86.16040959684926,445.0095222432134 M86.16040959684926,445.0095222432134 L100.05386136997333,460.1597082393944 M100.05386136997333,460.1597082393944 L118.33732718629443,468.275955988342 M118.33732718629443,468.275955988342 L139.94689102750027,468.88942198335735 M139.94689102750027,468.88942198335735 L163.62626262512248,461.9672838047723 M163.62626262512248,461.9672838047723 L187.99999139011317,447.9139320118907 M187.99999139011317,447.9139320118907 L211.6531123365887,427.54706148144436 M211.6531123365887,427.54706148144436 L233.21321918639728,402.04981717666635 M233.21321918639728,402.04981717666635 L251.42955273774874,372.9022426195132 M251.42955273774874,372.9022426195132 L265.2452210737994,341.79565058536576 M265.2452210737994,341.79565058536576 L273.8582334230822,310.5349152820396 M273.8582334230822,310.5349152820396 L276.7679089111427,280.93423147765236 M276.7679089111427,280.93423147765236 L273.8039618436227,254.71232765932592 M273.8039618436227,254.71232765932592 L265.1367032848467,233.39289398246686 M265.1367032848467,233.39289398246686 L251.26755345518774,218.21607372887138 M251.26755345518774,218.21607372887138 L233.0004658313704,210.06618249630742 M233.0004658313704,210.06618249630742 L211.3956669485292,209.41970107825347 M211.3956669485292,209.41970107825347 L187.70834176950956,216.31708017563847 M187.70834176950956,216.31708017563847 L163.31573844446262,230.359554065061 M163.31573844446262,230.359554065061 L139.63714593329524,250.73191989335874 M139.63714593329524,250.73191989335874 L118.05083020334774,276.24982093904066 M118.05083020334774,276.24982093904066 L99.8135683081689,305.4284166223337 M99.8135683081689,305.4284166223337 L85.98698402928778,336.56935762180797 M85.98698402928778,336.56935762180797 L77.37562082917253,367.85984880934427 M77.37562082917253,367.85984880934427 L74.47976798410423,397.4788946133232 M334.0441703608648,547.5890734978984 L74.47976798410423,397.4788946133232 M478.7029731253249,480.7528961579975 L501.9135156817632,491.2578478884208 M501.9135156817632,491.2578478884208 L528.8067130120987,498.2494803779604 M528.8067130120987,498.2494803779604 L557.8180648110149,501.32044089022725 M557.8180648110149,501.32044089022725 L587.2593436638791,500.29177406130265 M587.2593436638791,500.29177406130265 L615.4171655482428,495.223424270487 M615.4171655482428,495.223424270487 L640.6531692032264,486.4107232937808 M640.6531692032264,486.4107232937808 L661.4996360368438,474.3670394747946 M661.4996360368438,474.3670394747946 L676.7450430631369,459.7936727498586 M676.7450430631369,459.7936727498586 L685.5044825007923,443.5387788396491 M685.5044825007923,443.5387788396491 L687.2708250875401,426.5477992755345 M687.2708250875401,426.5477992755345 L681.9437634941577,409.8083626336809 M681.9437634941577,409.8083626336809 L669.8350893854125,394.2928119395915 M669.8350893854125,394.2928119395915 L651.6500838086016,380.90183524943996 M651.6500838086016,380.90183524943996 L628.4461446034195,370.41235121962427 M628.4461446034195,370.41235121962427 L601.571244573163,363.4326429721925 M601.571244573163,363.4326429721925 L572.5856923343298,360.3673315364722 M572.5856923343298,360.3673315364722 L543.1718049437218,361.3940781423749 M543.1718049437218,361.3940781423749 L515.0366913489228,366.45337830672065 M515.0366913489228,366.45337830672065 L489.8135106259937,375.25197342037967 M489.8135106259937,375.25197342037967 L468.96704378939955,387.27972662217167 M468.96704378939955,387.27972662217167 L453.7088138276698,401.83898748973684 M453.7088138276698,401.83898748973684 L444.92666610256094,418.0848317805158 M444.92666610256094,418.0848317805158 L443.13293205933746,435.0738911205393 M443.13293205933746,435.0738911205393 L448.43419409709327,451.8189768347927 M448.43419409709327,451.8189768347927 L460.52457090504186,467.3464517643976 M460.52457090504186,467.3464517643976 L478.7029731253249,480.7528961579975 M493.1200364353391,455.78181000911576 L493.0799534078981,289.2292197311812 M493.1200364353391,455.78181000911576 L512.4627669817012,464.53437647374443 M512.4627669817012,464.53437647374443 L534.8737422111268,470.359581063183 M534.8737422111268,470.359581063183 L559.0494214960305,472.9181812861032 M559.0494214960305,472.9181812861032 L583.5832739497512,472.0611383813752 M583.5832739497512,472.0611383813752 L607.0478571562995,467.8383805588278 M607.0478571562995,467.8383805588278 L628.0781397532642,460.4958518005875 M628.0781397532642,460.4958518005875 L645.4511611888347,450.4611132246198 M645.4511611888347,450.4611132246198 L658.1572636084267,438.3182946746048 M658.1572636084267,438.3182946746048 L665.45877375092,424.77392759852387 M665.45877375092,424.77392759852387 L666.9327125102452,410.61570167828677 M666.9327125102452,410.61570167828677 L662.4950362656847,396.66655286253535 M662.4950362656847,396.66655286253535 L652.4051889794963,383.73681638541 M652.4051889794963,383.73681638541 L637.2506310348431,372.57721891428025 M637.2506310348431,372.57721891428025 L617.9124866550275,363.8353939091872 M617.9124866550275,363.8353939091872 L595.5142192995371,358.0184700376792 M595.5142192995371,358.0184700376792 L571.3564583666026,355.4637927859776 M571.3564583666026,355.4637927859776 L546.8416298686228,356.31950220014585 M546.8416298686228,356.31950220014585 L523.3928180646909,360.53597556569144 M523.3928180646909,360.53597556569144 L502.37144127277827,367.8687085869747 M502.37144127277827,367.8687085869747 L484.998419835772,377.89238423483454 M484.998419835772,377.89238423483454 L472.2834116094965,390.02540704995147 M472.2834116094965,390.02540704995147 L464.96613006540497,403.56348966718247 M464.96613006540497,403.56348966718247 L463.47316735312734,417.72038209926313 M463.47316735312734,417.72038209926313 L467.8929252478682,431.67345388226977 M467.8929252478682,431.67345388226977 L477.97006465977506,444.6114710800675 M477.97006465977506,444.6114710800675 L493.1200364353391,455.78181000911576 M478.7029731253249,480.7528961579975 L481.9119839747724,478.4827926061675 M481.9119839747724,478.4827926061675 L484.95979472087276,475.49193919448896 M484.95979472087276,475.49193919448896 L487.69361184275465,471.9302938112772 M487.69361184275465,471.9302938112772 L489.9763785219292,467.9764212265187 M489.9763785219292,467.9764212265187 L491.69366863795665,463.82853116042094 M491.69366863795665,463.82853116042094 L492.7593653669451,459.6945787358999 M492.7593653669451,459.6945787358999 L493.1200364353391,455.78181000911576" stroke="black"  stroke-width="4"  fill="red"/></svg>